<svg xmlns="http://www.w3.org/2000/svg" viewBox="0 0 32 32" width="100%" height="100%">
  <defs>
    <linearGradient id="heartGrad" x1="0%" y1="0%" x2="0%" y2="100%">
      <stop offset="0%" stop-color="#ff6b6b"/>
      <stop offset="60%" stop-color="#ff4b4b"/>
      <stop offset="100%" stop-color="#ea2b2b"/>
    </linearGradient>
  </defs>
  <!-- Shadow / 3D base -->
  <path d="M16 29 C7 20 2 15 2 9 A7 7 0 0 1 16 6 A7 7 0 0 1 30 9 C30 15 25 20 16 29 Z" fill="#c41c1c"/>
  <!-- Front heart face -->
  <path d="M16 27 C7 18 2 13 2 7 A7 7 0 0 1 16 4 A7 7 0 0 1 30 7 C30 13 25 18 16 27 Z" fill="url(#heartGrad)"/>
  <!-- Highlight shine -->
  <ellipse cx="9" cy="8" rx="3" ry="1.8" transform="rotate(-30 9 8)" fill="#ffffff" opacity="0.6"/>
</svg>
